<?xml version="1.0" standalone="no"?>
<!DOCTYPE svg PUBLIC "-//W3C//DTD SVG 20010904//EN"
 "http://www.w3.org/TR/2001/REC-SVG-20010904/DTD/svg10.dtd">
<svg version="1.0" xmlns="http://www.w3.org/2000/svg"
 width="275.000000pt" height="183.000000pt" viewBox="0 0 275.000000 183.000000"
 preserveAspectRatio="xMidYMid meet">
<metadata>
Created by potrace 1.16, written by Peter Selinger 2001-2019
</metadata>
<g transform="translate(0.000000,183.000000) scale(0.100000,-0.100000)"
fill="#000000" stroke="none">
<path d="M146 1593 c4 -65 8 -120 10 -122 3 -4 193 22 258 35 28 6 28 5 24
-30 -3 -25 0 -36 9 -36 13 0 17 11 14 43 -2 11 5 17 18 17 11 0 22 -8 24 -17
4 -17 5 -17 6 0 0 9 6 17 11 17 6 0 10 -8 11 -17 1 -10 6 -4 11 13 9 29 15 33
66 39 30 4 61 9 69 12 7 3 13 -2 13 -11 0 -9 4 -16 9 -16 5 0 7 9 4 19 -4 17
-12 18 -86 14 -45 -3 -84 -9 -87 -13 -9 -13 -118 -21 -190 -14 -81 8 -76 24 7
24 28 0 54 3 56 8 3 4 -27 6 -66 5 -67 -2 -70 -1 -43 11 19 8 24 15 15 18 -7
2 36 10 96 17 170 20 276 38 235 40 -19 2 -44 6 -55 11 -16 7 -14 9 15 10 19
0 62 7 95 15 l60 14 -80 -5 c-44 -3 -134 -12 -200 -20 -112 -13 -234 -18 -190
-7 11 3 28 14 38 24 17 19 15 19 -83 19 l-101 0 7 -117z"/>
<path d="M745 1233 c-45 -5 -62 -22 -39 -40 13 -9 11 -12 -13 -17 -15 -3 -100
-8 -188 -13 -88 -4 -146 -9 -130 -11 27 -4 28 -5 10 -13 -11 -5 55 -6 152 -2
146 5 174 4 187 -9 13 -14 5 -17 -77 -32 -91 -16 -407 -46 -479 -46 l-38 0 -1
48 c-1 26 -5 58 -10 72 -6 19 -7 14 -4 -20 2 -25 4 -63 4 -84 l1 -39 98 7 c53
3 125 9 160 13 l63 6 -3 -39 -3 -39 -95 -6 c-52 -4 -128 -10 -168 -14 l-73 -7
7 -77 c3 -42 7 -77 8 -78 5 -6 155 11 151 17 -3 5 3 11 12 14 15 6 14 8 -2 20
-15 11 1 14 111 20 71 3 156 9 189 13 l60 7 -45 7 c-25 4 -113 5 -196 2 -136
-5 -151 -4 -151 11 0 29 108 47 415 68 100 6 182 16 182 21 0 6 -26 7 -62 4
-35 -4 -121 -9 -191 -13 l-129 -7 4 29 c3 25 8 29 38 32 19 2 38 8 41 13 3 6
73 16 155 22 143 12 180 20 170 36 -3 4 -6 35 -7 69 l-2 62 -36 -2 c-20 -1
-54 -3 -76 -5z"/>
<path d="M440 566 c0 -32 -2 -34 -46 -40 -26 -3 -79 -6 -119 -6 -40 0 -93 -3
-119 -6 -42 -6 -46 -9 -46 -34 0 -50 13 -122 20 -110 11 18 62 1 56 -19 -3 -9
-8 -29 -12 -44 -3 -15 -9 -26 -12 -23 -7 8 -31 -27 -26 -36 8 -13 22 -9 43 13
11 12 24 18 30 14 6 -3 11 1 11 11 0 11 6 15 20 11 11 -3 20 -1 20 5 0 6 -16
8 -36 6 -35 -4 -36 -4 -30 26 4 17 11 32 16 34 5 2 7 9 4 17 -4 10 5 15 33 17
34 3 31 5 -25 12 -64 9 -69 25 -7 26 23 0 27 3 15 10 -17 11 -12 12 50 11 32
0 39 2 25 8 -25 10 83 19 336 28 188 6 197 5 202 -13 2 -10 5 1 6 24 l1 44
-107 -6 c-60 -4 -147 -9 -195 -12 -84 -5 -88 -4 -88 15 0 22 6 24 53 21 19 -1
27 3 27 14 0 12 -11 16 -50 16 l-50 0 0 -34z"/>
<path d="M2455 473 c-26 -7 -35 -21 -35 -59 0 -28 3 -31 24 -27 13 3 27 0 30
-6 4 -6 16 -11 27 -11 10 0 19 -5 19 -11 0 -5 13 -15 29 -20 16 -6 32 -20 36
-32 21 -61 23 -63 24 -30 1 26 7 33 34 43 18 7 26 14 19 17 -10 4 -10 8 -1 19
9 11 6 14 -17 15 -16 1 -33 2 -39 4 -5 1 -18 3 -27 3 -9 1 -20 11 -23 22 -9
28 -54 80 -68 79 -7 -1 -21 -4 -32 -6z"/>
<path d="M2081 320 c-6 -22 -9 -59 -6 -84 4 -27 2 -47 -4 -51 -11 -6 -15 18
-12 75 l1 25 -10 -23 c-6 -13 -8 -28 -5 -32 3 -5 0 -12 -6 -15 -5 -4 -7 -14
-4 -24 11 -26 15 -87 5 -71 -8 12 -10 12 -14 0 -9 -30 -2 -50 30 -87 24 -27
34 -33 34 -20 0 9 -6 17 -12 17 -10 0 -9 3 1 9 10 7 9 11 -7 22 -24 17 -20 71
4 62 9 -3 12 0 9 8 -3 8 -1 28 4 44 9 28 9 29 10 5 1 -14 4 -35 7 -47 6 -22 6
-22 23 -2 16 20 16 20 16 -5 0 -13 -3 -22 -7 -19 -13 7 -9 -12 5 -26 10 -10 8
-11 -7 -5 -13 5 -17 4 -12 -4 5 -8 2 -10 -8 -6 -22 8 -20 -9 4 -37 17 -21 21
-22 30 -9 5 8 10 11 11 5 0 -5 4 -1 9 10 4 11 6 29 4 40 -11 63 -13 95 -4 95
6 0 10 10 10 23 0 12 11 49 25 81 27 66 27 81 0 39 -10 -15 -27 -36 -39 -45
-11 -10 -16 -18 -10 -18 13 0 6 -50 -7 -50 -15 0 -21 21 -9 35 8 10 9 15 2 15
-7 0 -9 8 -5 18 3 9 3 14 -2 10 -4 -4 -11 -25 -15 -45 l-7 -38 -12 44 c-7 24
-10 60 -6 82 9 50 1 50 -14 -1z"/>
<path d="M298 310 c-12 -16 -27 -30 -34 -30 -6 0 -14 -7 -18 -15 -3 -8 -12
-12 -20 -9 -11 4 -13 -3 -10 -37 2 -24 1 -52 -2 -62 -6 -18 -7 -18 -25 -1 -10
9 -19 30 -19 46 0 15 -4 28 -8 28 -4 0 -7 -28 -6 -62 1 -51 0 -59 -9 -40 -5
12 -14 22 -19 22 -4 0 -8 9 -8 19 0 11 -4 23 -10 26 -5 3 -10 15 -10 26 0 10
-4 19 -10 19 -5 0 -10 -7 -10 -15 0 -8 -4 -15 -9 -15 -5 0 -11 -15 -15 -32 -5
-26 -9 -30 -16 -18 -8 13 -10 13 -10 -2 0 -16 35 -48 52 -48 5 0 8 9 8 20 0
11 -4 20 -8 20 -4 0 -8 9 -8 20 0 40 21 13 22 -28 1 -48 14 -71 14 -26 l0 29
13 -24 c6 -13 17 -24 22 -23 6 0 16 -5 23 -11 10 -8 16 -7 22 3 13 21 23 5 16
-25 l-7 -26 -18 23 c-26 31 -32 21 -18 -25 8 -25 17 -36 27 -34 8 2 14 9 13
15 -4 17 53 15 71 -3 8 -9 17 -11 21 -6 3 5 -4 16 -15 24 -12 8 -18 20 -15 30
4 8 2 18 -4 22 -6 3 -11 11 -11 16 0 6 4 7 10 4 6 -3 10 3 10 14 0 12 -5 21
-12 21 -13 0 -2 14 13 16 5 1 12 2 15 3 4 0 1 7 -5 15 -10 11 -6 31 17 90 17
42 28 76 26 76 -2 0 -13 -13 -26 -30z"/>
<path d="M526 313 c-8 -16 -28 -40 -45 -55 -36 -33 -48 -71 -32 -102 9 -15 9
-30 2 -48 -8 -20 -7 -29 4 -38 8 -7 13 -15 11 -19 -8 -13 14 -51 29 -51 18 0
20 26 3 33 -8 3 -5 6 5 6 10 1 27 -4 38 -10 15 -8 24 -7 35 2 12 10 13 9 8 -7
-5 -18 -5 -18 10 0 21 26 20 40 -1 32 -10 -4 -14 -4 -10 0 4 4 0 12 -7 18 -13
9 -12 16 2 45 23 47 36 48 40 5 3 -44 21 -83 22 -46 0 12 5 22 10 22 6 0 8
-19 4 -50 -5 -42 -3 -50 10 -50 9 0 21 10 26 22 l9 23 0 -22 c1 -13 6 -23 12
-23 6 0 8 7 5 16 -3 9 -6 20 -6 25 0 5 -7 9 -16 9 -12 0 -15 7 -12 24 4 18 0
26 -14 29 -10 3 -18 13 -18 22 0 9 -4 13 -10 10 -15 -9 -12 12 5 46 12 22 12
29 3 27 -9 -2 -15 13 -18 46 l-5 50 -30 -27 c-16 -14 -25 -27 -19 -27 7 0 14
7 18 15 10 26 23 16 18 -15 -2 -16 -8 -27 -13 -24 -13 8 -11 -20 3 -34 9 -9 8
-12 -6 -12 -10 0 -14 5 -10 11 4 7 1 10 -7 7 -10 -4 -13 -18 -11 -46 1 -22 -1
-43 -5 -45 -13 -8 -15 93 -3 108 7 9 7 15 1 19 -11 7 -31 -24 -31 -47 0 -8 -9
-22 -21 -33 -21 -19 -21 -19 -18 1 3 13 -1 19 -10 17 -8 -2 -11 3 -8 12 3 8 1
17 -6 19 -9 3 -9 9 -1 23 16 27 33 29 26 2 -5 -21 -4 -22 11 -9 9 7 17 20 17
27 0 8 4 14 8 14 5 0 9 6 9 13 0 6 4 24 8 40 4 15 5 27 1 27 -3 0 -12 -12 -20
-27z"/>
</g>
</svg>
